{
  "asset": {
    "version": "2.0",
    "generator": "soulcorp-furniture-gen"
  },
  "scene": 0,
  "scenes": [
    {
      "name": "coffee_table",
      "nodes": [
        0
      ]
    }
  ],
  "nodes": [
    {
      "name": "coffee_table",
      "mesh": 0
    }
  ],
  "meshes": [
    {
      "name": "coffee_table",
      "primitives": [
        {
          "attributes": {
            "POSITION": 0,
            "COLOR_0": 1
          },
          "indices": 2,
          "mode": 4
        }
      ]
    }
  ],
  "accessors": [
    {
      "bufferView": 0,
      "componentType": 5126,
      "count": 40,
      "type": "VEC3",
      "max": [
        0.45,
        2,
        2
      ],
      "min": [
        -0.45,
        0,
        -2
      ]
    },
    {
      "bufferView": 1,
      "componentType": 5126,
      "count": 40,
      "type": "VEC3"
    },
    {
      "bufferView": 2,
      "componentType": 5123,
      "count": 180,
      "type": "SCALAR"
    }
  ],
  "bufferViews": [
    {
      "buffer": 0,
      "byteOffset": 0,
      "byteLength": 480
    },
    {
      "buffer": 0,
      "byteOffset": 480,
      "byteLength": 480
    },
    {
      "buffer": 0,
      "byteOffset": 960,
      "byteLength": 360
    }
  ],
  "buffers": [
    {
      "byteLength": 1320,
      "uri": "data:application/octet-stream;base64,"
    }
  ]
}