{
  "asset": {
    "version": "2.0",
    "generator": "soulcorp-furniture-gen"
  },
  "scene": 0,
  "scenes": [
    {
      "name": "filing_cabinet",
      "nodes": [
        0
      ]
    }
  ],
  "nodes": [
    {
      "name": "filing_cabinet",
      "mesh": 0
    }
  ],
  "meshes": [
    {
      "name": "filing_cabinet",
      "primitives": [
        {
          "attributes": {
            "POSITION": 0,
            "COLOR_0": 1
          },
          "indices": 2,
          "mode": 4
        }
      ]
    }
  ],
  "accessors": [
    {
      "bufferView": 0,
      "componentType": 5126,
      "count": 32,
      "type": "VEC3",
      "max": [
        0.225,
        2,
        2
      ],
      "min": [
        -0.225,
        0,
        -2
      ]
    },
    {
      "bufferView": 1,
      "componentType": 5126,
      "count": 32,
      "type": "VEC3"
    },
    {
      "bufferView": 2,
      "componentType": 5123,
      "count": 144,
      "type": "SCALAR"
    }
  ],
  "bufferViews": [
    {
      "buffer": 0,
      "byteOffset": 0,
      "byteLength": 384
    },
    {
      "buffer": 0,
      "byteOffset": 384,
      "byteLength": 384
    },
    {
      "buffer": 0,
      "byteOffset": 768,
      "byteLength": 288
    }
  ],
  "buffers": [
    {
      "byteLength": 1056,
      "uri": "data:application/octet-stream;base64,"
    }
  ]
}